<svg id="quantum" enable-background="new 0 0 509.007 509.007" height="512" viewBox="0 0 509.007 509.007" width="512" xmlns="http://www.w3.org/2000/svg" fill="#F3F4F6">
    <g>
        <g>
            <path d="m250.485 200.789c-44.45 0-80.613 36.163-80.613 80.614 0 44.45 36.163 80.613 80.613 80.613s80.613-36.163 80.613-80.613c.001-44.45-36.163-80.614-80.613-80.614zm0 141.227c-33.422 0-60.613-27.191-60.613-60.613s27.191-60.614 60.613-60.614 60.613 27.191 60.613 60.614c.001 33.423-27.19 60.613-60.613 60.613z"/>
            <path d="m430.918 281.403c.456-.7.919-1.398 1.365-2.1 26.98-42.405 32.418-82.075 15.312-111.702-17.105-29.628-54.184-44.758-104.393-42.59-.83.036-1.667.087-2.501.132-.378-.745-.752-1.496-1.136-2.232-2.349-4.507-4.796-8.779-7.313-12.868 3.849-5.748 6.098-12.652 6.098-20.073 0-19.945-16.227-36.171-36.171-36.171-7.87 0-15.156 2.534-21.1 6.819-9.844-4.495-20.097-6.819-30.595-6.819-34.211 0-65.847 24.545-89.081 69.112-.384.737-.758 1.487-1.136 2.232-.834-.045-1.671-.097-2.501-.132-50.214-2.168-87.288 12.962-104.393 42.59-2.612 4.523-4.693 9.283-6.255 14.249-14.559 4.68-25.126 18.346-25.126 34.44 0 18.618 14.141 33.991 32.246 35.955 3.807 8.843 8.611 17.884 14.448 27.058.446.701.909 1.4 1.365 2.1-.456.7-.919 1.4-1.365 2.1-26.98 42.405-32.418 82.075-15.313 111.702 16.03 27.765 49.596 42.793 95.079 42.793 3.051 0 6.158-.067 9.314-.204.829-.036 1.666-.091 2.499-.136.379.746.753 1.498 1.138 2.236 23.233 44.567 54.87 69.112 89.081 69.112s65.847-24.544 89.081-69.112c.385-.739.76-1.491 1.139-2.238.832.045 1.67.103 2.498.138 3.16.136 6.26.204 9.314.204 45.479-.001 79.05-15.03 95.079-42.793 17.105-29.627 11.667-69.297-15.312-111.702-.445-.701-.909-1.4-1.365-2.1zm-78.31-136.598c37.964 0 65.377 11.508 77.667 32.796 12.61 21.841 8.335 52.316-11.952 86.227-13.785-17.616-30.652-34.659-49.911-50.51-4.098-24.604-10.424-47.733-18.788-68.479.999-.016 1.999-.034 2.984-.034zm-24.079 271.773c-16.175-1.834-33.057-5.425-50.245-10.652 11.386-5.277 22.727-11.16 33.921-17.623 11.192-6.461 21.958-13.34 32.221-20.559-4.068 17.497-9.399 33.911-15.897 48.834zm-144.553-3.691c0 .703.025 1.4.065 2.093-3.903.63-7.771 1.164-11.6 1.598-6.498-14.923-11.829-31.338-15.897-48.834 10.263 7.22 21.029 14.098 32.221 20.56 1.09.629 2.187 1.227 3.279 1.844-5.039 6.217-8.068 14.129-8.068 22.739zm36.171-16.171c8.917 0 16.171 7.254 16.171 16.171s-7.254 16.171-16.171 16.171c-8.916 0-16.171-7.254-16.171-16.171s7.255-16.171 16.171-16.171zm82.057-25.733c-16.591 9.579-33.484 17.8-50.31 24.586-6.147-11.225-18.072-18.854-31.748-18.854-3.105 0-6.119.394-8.996 1.133-4.143-2.208-8.274-4.492-12.385-6.866-17.054-9.846-33.042-20.677-47.657-32.206-2.676-18.421-4.062-37.682-4.062-57.375s1.386-38.954 4.062-57.375c14.615-11.528 30.602-22.359 47.657-32.206 17.054-9.846 34.428-18.276 51.719-25.169 17.291 6.893 34.665 15.323 51.719 25.169s33.042 20.677 47.657 32.206c2.676 18.421 4.062 37.682 4.062 57.375s-1.386 38.954-4.062 57.375c-14.614 11.53-30.601 22.361-47.656 32.207zm-173.463-51.396c-13.118-12.271-24.668-25.094-34.343-38.184 9.675-13.089 21.225-25.913 34.343-38.184-1.121 12.498-1.695 25.261-1.695 38.184.001 12.924.575 25.686 1.695 38.184zm43.701-173.359c16.173 1.834 33.054 5.424 50.24 10.65-11.384 5.279-22.724 11.163-33.916 17.625s-21.958 13.34-32.221 20.559c4.068-17.496 9.398-33.911 15.897-48.834zm156.087 0c6.498 14.923 11.829 31.337 15.897 48.834-10.263-7.219-21.029-14.098-32.221-20.559-11.192-6.462-22.532-12.346-33.916-17.625 17.186-5.225 34.066-8.816 50.24-10.65zm43.7 96.991c13.118 12.271 24.668 25.094 34.343 38.184-9.675 13.09-21.225 25.914-34.343 38.185 1.121-12.499 1.695-25.261 1.695-38.184 0-12.925-.574-25.687-1.695-38.185zm-70.049-169.42c8.917 0 16.171 7.254 16.171 16.171s-7.254 16.171-16.171 16.171-16.171-7.254-16.171-16.171c0-8.916 7.254-16.171 16.171-16.171zm-51.695 0c6.048 0 12.039 1.109 17.92 3.245-1.543 4.017-2.397 8.372-2.397 12.926 0 19.945 16.226 36.171 36.171 36.171 5.189 0 10.122-1.107 14.588-3.083.815 1.378 1.625 2.771 2.423 4.204-22.15 3.13-45.345 9.216-68.705 17.97-23.357-8.753-46.55-14.838-68.699-17.969 19.225-34.524 43.479-53.464 68.699-53.464zm-208.491 142.491c0-8.916 7.254-16.171 16.171-16.171s16.171 7.254 16.171 16.171-7.254 16.171-16.171 16.171c-8.917.001-16.171-7.254-16.171-16.171zm32.483 32.269c11.77-5.974 19.859-18.191 19.859-32.269 0-16.318-10.865-30.141-25.738-34.63.637-1.384 1.334-2.738 2.097-4.059 12.291-21.289 39.7-32.796 77.667-32.796.984 0 1.984.018 2.982.033-8.363 20.747-14.689 43.875-18.788 68.479-19.259 15.852-36.126 32.895-49.912 50.511-3.094-5.175-5.821-10.272-8.167-15.269zm73.886 169.442c-37.964-.001-65.377-11.508-77.667-32.796-12.61-21.841-8.335-52.316 11.951-86.227 13.785 17.616 30.652 34.659 49.911 50.51 4.098 24.605 10.424 47.733 18.788 68.48-.999.015-1.998.033-2.983.033zm102.122 71.006c-25.223 0-49.48-18.945-68.706-53.476 3.013-.427 6.042-.903 9.092-1.438 6.58 9.06 17.248 14.966 29.276 14.966 17.696 0 32.455-12.778 35.56-29.589 21.59 7.733 42.982 13.164 63.48 16.067-19.224 34.527-43.48 53.47-68.702 53.47zm179.791-103.802c-12.61 21.842-41.137 33.375-80.65 32.763 8.363-20.747 14.689-43.875 18.787-68.479 19.259-15.852 36.126-32.894 49.911-50.51 20.287 33.91 24.561 64.385 11.952 86.226z"/>
            <ellipse cx="223.436" cy="260.583" rx="15.367" ry="15.367" transform="matrix(.218 -.976 .976 .218 -79.545 421.92)"/>
        </g>
        <g>
            <ellipse cx="134" cy="41.955" rx="18.547" ry="18.547" transform="matrix(.231 -.973 .973 .231 62.266 162.664)"/>
            <path d="m400.93 83.911c0 4.338-3.517 7.854-7.854 7.854-4.338 0-7.854-3.517-7.854-7.854 0-4.338 3.517-7.854 7.854-7.854 4.337-.001 7.854 3.516 7.854 7.854z"/>
            <path d="m34.458 77.876 6.301 17.716c.27.758.804 1.359 1.478 1.663l15.74 7.092c2.224 1.002 2.224 4.545 0 5.547l-15.74 7.092c-.674.304-1.208.905-1.478 1.663l-6.301 17.716c-.89 2.503-4.038 2.503-4.928 0l-6.301-17.716c-.27-.759-.804-1.36-1.478-1.663l-15.74-7.092c-2.224-1.002-2.224-4.545 0-5.547l15.74-7.092c.674-.304 1.208-.905 1.478-1.663l6.301-17.716c.89-2.503 4.038-2.503 4.928 0z"/><path d="m470.055 2.531 8.658 23.883c.371 1.023 1.105 1.833 2.031 2.242l21.629 9.56c3.056 1.351 3.056 6.127 0 7.478l-21.629 9.56c-.926.409-1.66 1.22-2.031 2.242l-8.658 23.883c-1.223 3.374-5.549 3.374-6.772 0l-8.658-23.883c-.371-1.023-1.104-1.833-2.031-2.242l-21.629-9.56c-3.056-1.35-3.056-6.127 0-7.478l21.629-9.56c.926-.409 1.66-1.22 2.031-2.242l8.658-23.883c1.223-3.375 5.549-3.375 6.772 0z"/>
        </g>
    </g>
</svg>
